<svg xmlns="http://www.w3.org/2000/svg"  viewBox="0 0 40 40" width="40px" height="40px"><path fill="#98ccfd" d="M20,32.5C9.248,32.5,0.5,26.893,0.5,20S9.248,7.5,20,7.5S39.5,13.107,39.5,20S30.752,32.5,20,32.5z"/><path fill="#4788c7" d="M20,8c10.477,0,19,5.383,19,12s-8.523,12-19,12S1,26.617,1,20S9.523,8,20,8 M20,7 C8.917,7,0,12.807,0,20c0,7.193,8.917,13,20,13s20-5.807,20-13C40,12.893,31.083,7,20,7L20,7z"/><g><path fill="#fff" d="M15,26c0.914-3.516,3.625-2.313,5,3.217c1.406-5.498,4.086-6.733,5-3.217 c3.531-5.219,7.083-2.722,5,1c3.508-1.722,6-4.171,6-6.977c0-3.427-3.389-6.489-8.281-8.101c-0.35-0.102-0.708-0.198-1.073-0.286 c4.154,5.526-2.302,8.584-3.739,4.521l-0.498-4.412L21.246,13H20h-1.246l-1.163-1.256l-0.498,4.412 c-1.342,4.063-7.892,1.005-3.739-4.521c-0.318,0.072-0.627,0.153-0.933,0.236C7.452,13.471,4,16.562,4,20.023 C4,22.75,6.479,25.265,9.937,27C7.981,23.339,11.594,20.719,15,26z"/></g></svg>